# WaveFront *.obj file (generated by Autodesk ATF)

mtllib houser.mtl

g Solid1

v -84.999998 -54.999999 -84.999998
v -84.999998 -54.999999 0.000000
v -84.999998 -20.000000 -65.000002
v -84.999998 -20.000000 -50.000000
v -84.999998 0.000000 -84.999998
v -84.999998 0.000000 -65.000002
v -84.999998 0.000000 -50.000000
v -84.999998 0.000000 0.000000
v -65.000002 -20.000000 -65.000002
v -65.000002 -20.000000 -50.000000
v -65.000002 0.000000 -65.000002
v -65.000002 0.000000 -50.000000
v 0.000000 -54.999999 -84.999998
v 0.000000 -54.999999 0.000000
v 0.000000 0.000000 -84.999998
v 0.000000 0.000000 0.000000
vt 0.000000 0.000000 0.000000
vt 215.899994 0.000000 0.000000
vt 215.899994 139.699997 0.000000
vt 0.000000 139.699997 0.000000
vt 0.000000 0.000000 0.000000
vt 215.899994 0.000000 0.000000
vt 215.899994 139.699997 0.000000
vt 0.000000 139.699997 0.000000
vt 165.100006 50.799999 0.000000
vt 165.100006 0.000000 0.000000
vt 215.899994 0.000000 0.000000
vt 215.899994 139.699997 0.000000
vt 0.000000 139.699997 0.000000
vt 0.000000 0.000000 0.000000
vt 127.000000 0.000000 0.000000
vt 127.000000 50.799999 0.000000
vt 0.000000 0.000000 0.000000
vt 215.899994 0.000000 0.000000
vt 215.899994 139.699997 0.000000
vt 0.000000 139.699997 0.000000
vt -107.949997 107.949997 0.000000
vt -107.949997 -107.949997 0.000000
vt 107.949997 -107.949997 0.000000
vt 107.949997 107.949997 0.000000
vt -57.150002 -107.949997 0.000000
vt -57.150002 -57.150002 0.000000
vt -19.049999 -57.150002 0.000000
vt -19.049999 -107.949997 0.000000
vt 107.949997 -107.949997 0.000000
vt 107.949997 107.949997 0.000000
vt -107.949997 107.949997 0.000000
vt -107.949997 -107.949997 0.000000
vt -38.099998 0.000000 0.000000
vt -0.000000 0.000000 0.000000
vt -0.000000 50.799999 0.000000
vt -38.099998 50.799999 0.000000
vt -50.799999 0.000000 0.000000
vt -0.000000 0.000000 0.000000
vt -0.000000 50.799999 0.000000
vt -50.799999 50.799999 0.000000
vt -50.799999 0.000000 0.000000
vt -0.000000 0.000000 0.000000
vt -0.000000 50.799999 0.000000
vt -50.799999 50.799999 0.000000
vt -19.049999 25.400000 0.000000
vt -19.049999 -25.400000 0.000000
vt 19.049999 -25.400000 0.000000
vt 19.049999 25.400000 0.000000
vn 2.540000 0.000000 0.000000
vn 2.540000 0.000000 0.000000
vn 2.540000 0.000000 0.000000
vn 2.540000 0.000000 0.000000
vn 0.000000 0.000000 -2.540000
vn 0.000000 0.000000 -2.540000
vn 0.000000 0.000000 -2.540000
vn 0.000000 0.000000 -2.540000
vn -2.540000 0.000000 0.000000
vn -2.540000 0.000000 0.000000
vn -2.540000 0.000000 0.000000
vn -2.540000 0.000000 0.000000
vn -2.540000 0.000000 0.000000
vn -2.540000 0.000000 0.000000
vn -2.540000 0.000000 0.000000
vn -2.540000 0.000000 0.000000
vn 0.000000 0.000000 2.540000
vn 0.000000 0.000000 2.540000
vn 0.000000 0.000000 2.540000
vn 0.000000 0.000000 2.540000
vn 0.000000 -2.540000 0.000000
vn 0.000000 -2.540000 0.000000
vn 0.000000 -2.540000 0.000000
vn 0.000000 -2.540000 0.000000
vn 0.000000 2.540000 0.000000
vn 0.000000 2.540000 0.000000
vn 0.000000 2.540000 0.000000
vn 0.000000 2.540000 0.000000
vn 0.000000 2.540000 0.000000
vn 0.000000 2.540000 0.000000
vn 0.000000 2.540000 0.000000
vn 0.000000 2.540000 0.000000
vn 0.000000 2.540000 0.000000
vn 0.000000 2.540000 0.000000
vn 0.000000 2.540000 0.000000
vn 0.000000 2.540000 0.000000
vn 0.000000 0.000000 -2.540000
vn 0.000000 0.000000 -2.540000
vn 0.000000 0.000000 -2.540000
vn 0.000000 0.000000 -2.540000
vn 0.000000 0.000000 2.540000
vn 0.000000 0.000000 2.540000
vn 0.000000 0.000000 2.540000
vn 0.000000 0.000000 2.540000
vn -2.540000 0.000000 0.000000
vn -2.540000 0.000000 0.000000
vn -2.540000 0.000000 0.000000
vn -2.540000 0.000000 0.000000
usemtl 191,191,191
f 15/1/1 16/2/2 13/4/4
f 13/4/4 16/2/2 14/3/3
usemtl 88,53,130
f 5/5/5 15/6/6 1/8/8
f 1/8/8 15/6/6 13/7/7
usemtl 191,191,191
f 6/10/10 5/11/11 3/9/9
f 3/9/9 5/11/11 1/12/12
f 3/9/9 1/12/12 4/16/16
f 4/16/16 1/12/12 2/13/13
f 4/16/16 2/13/13 8/14/14
f 8/14/14 7/15/15 4/16/16
usemtl 170,166,94
f 16/17/17 8/18/18 14/20/20
f 14/20/20 8/18/18 2/19/19
usemtl 191,191,191
f 2/22/22 1/23/23 14/21/21
f 14/21/21 1/23/23 13/24/24
f 6/25/25 11/26/26 5/32/32
f 5/32/32 11/26/26 15/31/31
f 15/31/31 11/26/26 12/27/27
f 15/31/31 12/27/27 16/30/30
f 16/30/30 12/27/27 8/29/29
f 8/29/29 12/27/27 7/28/28
f 3/33/33 4/34/34 9/36/36
f 9/36/36 4/34/34 10/35/35
f 4/37/37 7/38/38 10/40/40
f 10/40/40 7/38/38 12/39/39
f 6/41/41 3/42/42 11/44/44
f 11/44/44 3/42/42 9/43/43
f 9/46/46 10/47/47 11/45/45
f 11/45/45 10/47/47 12/48/48

# 16 vertices
# 48 texture params
# 48 normals
# 28 facets

# 1 groups
