# WaveFront *.obj file (generated by Autodesk ATF)

mtllib Partdone.mtl

g Solid1

v -500.000000 0.000000 -500.000000
v -500.000000 0.000000 0.000000
v -500.000000 20.000000 -500.000000
v -500.000000 20.000000 0.000000
v 0.000000 0.000000 -500.000000
v 0.000000 0.000000 0.000000
v 0.000000 20.000000 -500.000000
v 0.000000 20.000000 0.000000
vt 0.000000 0.000000 0.000000
vt 1270.000000 0.000000 0.000000
vt 1270.000000 50.799999 0.000000
vt 0.000000 50.799999 0.000000
vt 0.000000 0.000000 0.000000
vt 1270.000000 0.000000 0.000000
vt 1270.000000 50.799999 0.000000
vt 0.000000 50.799999 0.000000
vt 0.000000 0.000000 0.000000
vt 1270.000000 0.000000 0.000000
vt 1270.000000 50.799999 0.000000
vt 0.000000 50.799999 0.000000
vt 0.000000 0.000000 0.000000
vt 1270.000000 0.000000 0.000000
vt 1270.000000 50.799999 0.000000
vt 0.000000 50.799999 0.000000
vt -635.000000 635.000000 0.000000
vt -635.000000 -635.000000 0.000000
vt 635.000000 -635.000000 0.000000
vt 635.000000 635.000000 0.000000
vt 635.000000 -635.000000 0.000000
vt 635.000000 635.000000 0.000000
vt -635.000000 635.000000 0.000000
vt -635.000000 -635.000000 0.000000
vn -2.540000 0.000000 0.000000
vn -2.540000 0.000000 0.000000
vn -2.540000 0.000000 0.000000
vn -2.540000 0.000000 0.000000
vn 0.000000 0.000000 -2.540000
vn 0.000000 0.000000 -2.540000
vn 0.000000 0.000000 -2.540000
vn 0.000000 0.000000 -2.540000
vn 2.540000 0.000000 0.000000
vn 2.540000 0.000000 0.000000
vn 2.540000 0.000000 0.000000
vn 2.540000 0.000000 0.000000
vn 0.000000 0.000000 2.540000
vn 0.000000 0.000000 2.540000
vn 0.000000 0.000000 2.540000
vn 0.000000 0.000000 2.540000
vn 0.000000 -2.540000 0.000000
vn 0.000000 -2.540000 0.000000
vn 0.000000 -2.540000 0.000000
vn 0.000000 -2.540000 0.000000
vn 0.000000 2.540000 0.000000
vn 0.000000 2.540000 0.000000
vn 0.000000 2.540000 0.000000
vn 0.000000 2.540000 0.000000
usemtl 139,69,16
f 1/1/1 2/2/2 3/4/4
f 3/4/4 2/2/2 4/3/3
usemtl 191,191,191
f 5/5/5 1/6/6 7/8/8
f 7/8/8 1/6/6 3/7/7
usemtl 99,167,226
f 6/9/9 5/10/10 8/12/12
f 8/12/12 5/10/10 7/11/11
usemtl 139,69,16
f 2/13/13 6/14/14 4/16/16
f 4/16/16 6/14/14 8/15/15
usemtl 63,181,65
f 2/18/18 1/19/19 6/17/17
f 6/17/17 1/19/19 5/20/20
usemtl 191,191,191
f 8/22/22 7/23/23 4/21/21
f 4/21/21 7/23/23 3/24/24

# 8 vertices
# 24 texture params
# 24 normals
# 12 facets

# 1 groups
